# xmcd
#
# Track frame offsets:
#       150
#       11775
#       27913
#       45056
#       62205
#       91694
#       111354
#       134682
#       150974
#       167931
#       186732
#       200705
#
# Disc length: 2807 seconds
#
# Revision: 1
# Processed by: cddbd v1.5.1PL0 Copyright (c) Steve Scherf et al.
# Submitted via: MusiCat 1.1
#
DISCID=a30af50c
DTITLE=Various Artist - In the Spirit: The Lord Strong and Mighty
DYEAR=2003
DGENRE=
TTITLE0=Wherever There's a Will - Original Fipe Blind Boys Of Mississippi
TTITLE1=There's a Place for Us - Bishop Richard "Mr Clean" White
TTITLE2=Something Within - Holloway, Harold and Co.
TTITLE3=God's Got It - Pastor Charles Hayes
TTITLE4=New Jeruslem - The Original Soul Stirrers 
TTITLE5=I Need Thee Every Hour - Katie Sankey
TTITLE6=Jesus Jesus Jesus - Fantastic Violinaires
TTITLE7=Without You - Gospel Hi Lites
TTITLE8=Lord You Been So Good - Reperend Charlie Brown
TTITLE9=The Lord Strong and Mighty - L. Andre Patterson
TTITLE10=You Can't Beat God Giving - New Life Choir
TTITLE11=I'm a Pilgrim - Brooklyn Allstars
EXTD=\n528\n
EXTT0=
EXTT1=
EXTT2=
EXTT3=
EXTT4=
EXTT5=
EXTT6=
EXTT7=
EXTT8=
EXTT9=
EXTT10=
EXTT11=
PLAYORDER=
